<?xml version="1.0" encoding="UTF-8" standalone="no"?>
<!DOCTYPE svg PUBLIC "-//W3C//DTD SVG 1.1//EN" "http://www.w3.org/Graphics/SVG/1.1/DTD/svg11.dtd">
<svg width="100%" height="100%" viewBox="0 0 116 114" version="1.1" xmlns="http://www.w3.org/2000/svg" xmlns:xlink="http://www.w3.org/1999/xlink" xml:space="preserve" xmlns:serif="http://www.serif.com/" style="fill-rule:evenodd;clip-rule:evenodd;stroke-linejoin:round;stroke-miterlimit:1.41421;">
    <g transform="matrix(1,0,0,1,-399.554,-1993.58)">
        <g transform="matrix(1.64546,0,0,1.82899,-73.7254,0)">
            <g transform="matrix(0.142211,0,0,0.127941,287.931,1089.77)">
                <path d="M414.61,211.775C411.204,202.217 402.147,195.842 392,195.86C381.863,195.891 372.842,202.298 369.474,211.86L320,211.86L320,179.86L352,179.86C356.417,179.861 359.999,176.281 360,171.864C360,171.863 360,171.861 360,171.86L360,138.386C372.497,133.968 379.047,120.256 374.629,107.758C370.211,95.261 356.499,88.711 344.001,93.129C331.503,97.547 324.954,111.259 329.372,123.757C331.788,130.592 337.165,135.969 344,138.386L344,163.861L320,163.861L320,147.861C320.001,143.444 316.421,139.862 312.004,139.861C312.003,139.861 312.001,139.861 312,139.861L296,139.861L296,98.385C308.497,93.967 315.047,80.255 310.629,67.757C306.211,55.26 292.499,48.71 280.001,53.128C267.504,57.546 260.954,71.258 265.372,83.756C267.788,90.591 273.165,95.968 280,98.385L280,139.86L248,139.86L248,12.141C248.001,7.724 244.421,4.142 240.004,4.141C240.003,4.141 240.001,4.141 240,4.141C141.309,4.141 64,75.594 64,166.805C64,210.133 81.199,267.5 108.891,316.508C113.864,325.305 120.352,334.555 127.219,344.352C141.74,365.051 157.9,388.328 159.657,408.59C153.507,412.937 149.908,420.048 150.047,427.578C150.07,432.987 151.938,438.227 155.342,442.431C150.607,447.103 147.959,453.489 148,460.141C148.014,473.39 158.751,484.127 172,484.141L308,484.141C321.339,484.058 332.086,473.178 332.003,459.839C332.002,459.752 332.001,459.665 332,459.578C331.995,453.071 329.336,446.848 324.637,442.346C328.085,437.98 329.958,432.578 329.953,427.015C329.929,414.344 319.638,404.092 306.967,404.116C306.629,404.117 306.291,404.125 305.953,404.14L248,404.14L248,251.859L264,251.859L264,275.859C263.999,280.276 267.579,283.858 271.996,283.859L296,283.859L296,293.333C283.503,297.751 276.954,311.464 281.373,323.96C285.792,336.456 299.504,343.006 312,338.587C324.497,334.169 331.046,320.456 326.627,307.96C324.211,301.125 318.834,295.749 312,293.333L312,275.859C312.001,271.442 308.421,267.86 304.004,267.859C304.003,267.859 304.001,267.859 304,267.859L280,267.859L280,251.859L312,251.859C316.417,251.86 319.999,248.28 320,243.863C320,243.862 320,243.86 320,243.859L320,227.859L369.475,227.859C373.917,240.323 387.621,246.826 400.085,242.384C412.548,237.943 419.051,224.239 414.61,211.775ZM352,107.859C356.418,107.859 360,111.441 360,115.859C360,120.277 356.418,123.859 352,123.859C347.582,123.859 344,120.277 344,115.859C344.004,111.443 347.584,107.864 352,107.859ZM140.32,335.164C133.679,325.695 127.41,316.758 122.82,308.633C96.809,262.594 80,206.922 80,166.805C80,87.024 146.137,24.008 232,20.313L232,76.201C229.876,76.36 227.709,76.553 225.391,76.837C221.995,77.25 219.238,79.778 218.532,83.126L216.094,94.72C214.086,95.197 212.084,95.736 210.086,96.337L202.113,87.446C199.829,84.891 196.171,84.077 193.019,85.423C184.065,89.284 175.614,94.219 167.851,100.118C165.118,102.178 163.999,105.749 165.066,109.001L168.738,120.189C167.226,121.611 165.754,123.087 164.328,124.595L153.152,120.923C149.901,119.87 146.339,120.985 144.269,123.704C138.362,131.469 133.423,139.924 129.562,148.884C128.218,152.036 129.032,155.693 131.585,157.978L140.48,165.947C139.882,167.924 139.347,169.905 138.875,171.892L126.434,174.376C122.694,175.122 120.001,178.406 120.001,182.22L120.001,209.5C120.001,213.314 122.694,216.598 126.435,217.344L138.876,219.828C139.349,221.812 139.884,223.794 140.481,225.773L131.583,233.742C129.033,236.029 128.22,239.684 129.56,242.836C133.422,251.795 138.36,260.251 144.267,268.016C146.335,270.738 149.899,271.853 153.15,270.797L164.326,267.125C165.756,268.633 167.224,270.109 168.736,271.531L165.064,282.703C163.998,285.954 165.115,289.523 167.845,291.586C175.608,297.494 184.063,302.434 193.021,306.297C196.173,307.635 199.827,306.822 202.115,304.274L210.088,295.383C212.084,295.985 214.087,296.524 216.096,297L218.53,308.586C219.233,311.937 221.991,314.469 225.389,314.883C227.71,315.167 229.878,315.36 232.002,315.519L232.002,404.141L175.312,404.141C172.041,380.564 155.341,356.581 140.32,335.164ZM168,195.859C168.051,232.503 195.587,263.278 232,267.387L232,294.898L230.676,288.601C230.008,285.412 227.473,282.946 224.266,282.367C219.524,281.504 214.862,280.247 210.329,278.609C209.46,278.3 208.544,278.142 207.622,278.14C205.348,278.14 203.181,279.109 201.665,280.804L194.142,289.195C189.973,287.112 185.95,284.749 182.099,282.125L185.572,271.555C186.589,268.457 185.626,265.053 183.138,262.946C179.449,259.823 176.024,256.4 172.9,252.712C170.787,250.241 167.394,249.285 164.302,250.29L153.736,253.767C151.11,249.915 148.747,245.89 146.662,241.72L155.06,234.197C157.482,232.022 158.348,228.598 157.251,225.533C155.615,220.999 154.358,216.337 153.493,211.596C152.909,208.363 150.407,205.816 147.184,205.174L136,202.938L136,188.782L147.184,186.548C150.406,185.907 152.909,183.359 153.493,180.126C154.358,175.382 155.615,170.717 157.25,166.18C158.349,163.114 157.481,159.689 155.055,157.516L146.664,150C148.751,145.832 151.113,141.807 153.734,137.953L164.304,141.43C167.396,142.434 170.788,141.479 172.902,139.008C176.034,135.317 179.461,131.887 183.148,128.75C185.626,126.647 186.584,123.252 185.57,120.164L182.101,109.594C185.952,106.971 189.974,104.609 194.14,102.524L201.663,110.915C203.839,113.335 207.261,114.202 210.327,113.11C214.86,111.471 219.522,110.214 224.264,109.352C227.47,108.776 230.005,106.313 230.674,103.125L232,96.828L232,124.331C195.587,128.441 168.051,159.215 168,195.859ZM232,140.498L232,251.22C201.425,246.843 180.187,218.508 184.564,187.933C188.085,163.341 207.407,144.019 232,140.498ZM316,460.141C315.996,464.557 312.416,468.137 308,468.141L172,468.141C167.501,468.065 163.915,464.356 163.991,459.857C163.993,459.764 163.996,459.671 164,459.578C164.004,455.162 167.584,451.582 172,451.578L308,451.578C312.499,451.654 316.085,455.363 316.009,459.862C316.008,459.955 316.005,460.048 316,460.141ZM305.953,420.141C309.983,419.769 313.552,422.736 313.923,426.766C313.948,427.036 313.958,427.307 313.953,427.578C313.949,431.994 310.369,435.574 305.953,435.578L174.047,435.578C169.548,435.502 165.962,431.794 166.038,427.294C166.04,427.201 166.043,427.108 166.047,427.015C166.218,423.027 169.59,419.933 173.578,420.105C173.735,420.112 173.891,420.124 174.047,420.14L305.953,420.14L305.953,420.141ZM304,307.859C308.418,307.859 312,311.441 312,315.859C312,320.277 308.418,323.859 304,323.859C299.582,323.859 296,320.277 296,315.859C296.004,311.443 299.584,307.864 304,307.859ZM288,67.859C292.418,67.859 296,71.441 296,75.859C296,80.277 292.418,83.859 288,83.859C283.582,83.859 280,80.277 280,75.859C280.004,71.443 283.584,67.864 288,67.859ZM304,235.859L248,235.859L248,155.859L304,155.859L304,235.859ZM392,227.859C387.582,227.859 384,224.277 384,219.859C384,215.441 387.582,211.859 392,211.859C396.418,211.859 400,215.441 400,219.859C399.996,224.276 396.416,227.855 392,227.859Z" style="fill:white;fill-rule:nonzero;stroke:white;stroke-width:4.27px;"/>
                <path d="M317.152,369.828C314.331,374.872 311.835,380.091 309.68,385.453L324.555,391.344C326.461,386.614 328.667,382.011 331.16,377.563L317.152,369.828Z" style="fill:white;fill-rule:nonzero;stroke:white;stroke-width:4.27px;"/>
                <path d="M335.148,341.648C332.004,346.164 328.867,350.757 325.867,355.398L339.297,364.086C342.203,359.602 345.238,355.164 348.281,350.789L335.148,341.648Z" style="fill:white;fill-rule:nonzero;stroke:white;stroke-width:4.27px;"/>
                <path d="M353.348,315.031C350.649,319.312 347.641,323.742 344.489,328.289L357.63,337.414C360.931,332.664 364.071,328.031 366.888,323.547L353.348,315.031Z" style="fill:white;fill-rule:nonzero;stroke:white;stroke-width:4.27px;"/>
                <path d="M368.359,287.148C366.066,291.945 363.669,296.687 361.168,301.375L375.277,308.922C377.894,304.024 380.401,299.063 382.797,294.039L368.359,287.148Z" style="fill:white;fill-rule:nonzero;stroke:white;stroke-width:4.27px;"/>
                <path d="M380.855,257.789C378.996,262.734 377.015,267.687 374.921,272.601L389.648,278.867C391.828,273.734 393.889,268.583 395.832,263.414L380.855,257.789Z" style="fill:white;fill-rule:nonzero;stroke:white;stroke-width:4.27px;"/>
                <path d="M415.992,165.211L399.992,165.336L400,166.805C400,171.266 399.793,176.008 399.379,180.883L415.324,182.227C415.773,176.907 416,171.719 416,166.805L415.992,165.211Z" style="fill:white;fill-rule:nonzero;stroke:white;stroke-width:4.27px;"/>
                <path d="M411.918,131.156L396.34,134.797C397.509,139.798 398.398,144.861 399.004,149.961L414.895,148.07C414.216,142.382 413.222,136.735 411.918,131.156Z" style="fill:white;fill-rule:nonzero;stroke:white;stroke-width:4.27px;"/>
                <path d="M400.418,98.828L386.035,105.828C388.284,110.449 390.277,115.191 392.004,120.031L407.074,114.672C405.152,109.271 402.93,103.981 400.418,98.828Z" style="fill:white;fill-rule:nonzero;stroke:white;stroke-width:4.27px;"/>
                <path d="M382.117,69.859L369.586,79.812C372.788,83.844 375.774,88.042 378.531,92.39L392.054,83.843C388.992,79.009 385.675,74.341 382.117,69.859Z" style="fill:white;fill-rule:nonzero;stroke:white;stroke-width:4.27px;"/>
                <path d="M358.141,45.445L347.946,57.773C351.923,61.063 355.729,64.555 359.348,68.234L370.754,57.015C366.749,52.946 362.539,49.085 358.141,45.445Z" style="fill:white;fill-rule:nonzero;stroke:white;stroke-width:4.27px;"/>
                <path d="M329.836,26.375L322.227,40.453C326.797,42.922 331.27,45.625 335.52,48.484L344.45,35.203C339.773,32.063 334.859,29.094 329.836,26.375Z" style="fill:white;fill-rule:nonzero;stroke:white;stroke-width:4.27px;"/>
                <path d="M298.477,13.102L293.633,28.352C298.617,29.93 303.52,31.743 308.211,33.735L314.469,19.016C309.317,16.82 303.934,14.836 298.477,13.102Z" style="fill:white;fill-rule:nonzero;stroke:white;stroke-width:4.27px;"/>
                <path d="M265.285,5.758L263.238,21.633C268.398,22.297 273.562,23.196 278.586,24.313L282.047,8.688C276.559,7.477 270.918,6.492 265.285,5.758Z" style="fill:white;fill-rule:nonzero;stroke:white;stroke-width:4.27px;"/>
                <rect x="16" y="435.859" width="16" height="16" style="fill:white;stroke:white;stroke-width:4.27px;"/>
                <rect x="16" y="467.859" width="16" height="16" style="fill:white;stroke:white;stroke-width:4.27px;"/>
                <rect x="32" y="451.859" width="16" height="16" style="fill:white;stroke:white;stroke-width:4.27px;"/>
                <rect x="0" y="451.859" width="16" height="16" style="fill:white;stroke:white;stroke-width:4.27px;"/>
                <rect x="456" y="3.859" width="16" height="16" style="fill:white;stroke:white;stroke-width:4.27px;"/>
                <rect x="456" y="35.859" width="16" height="16" style="fill:white;stroke:white;stroke-width:4.27px;"/>
                <rect x="472" y="19.859" width="16" height="16" style="fill:white;stroke:white;stroke-width:4.27px;"/>
                <rect x="440" y="19.859" width="16" height="16" style="fill:white;stroke:white;stroke-width:4.27px;"/>
            </g>
        </g>
    </g>
</svg>
