<?xml version="1.0" encoding="UTF-8" standalone="no"?>
<!DOCTYPE svg PUBLIC "-//W3C//DTD SVG 1.1//EN" "http://www.w3.org/Graphics/SVG/1.1/DTD/svg11.dtd">
<svg width="100%" height="100%" viewBox="0 0 84 63" version="1.1" xmlns="http://www.w3.org/2000/svg" xmlns:xlink="http://www.w3.org/1999/xlink" xml:space="preserve" xmlns:serif="http://www.serif.com/" style="fill-rule:evenodd;clip-rule:evenodd;stroke-linejoin:round;stroke-miterlimit:1.41421;">
    <g transform="matrix(1,0,0,1,-505.027,-2790.1)">
        <g transform="matrix(1.64546,0,0,1.82899,-73.7254,0)">
            <g transform="matrix(1.57692,0,0,1.41869,351.727,1519.81)">
                <path d="M30.5,8L26.81,8L24.81,4L17.19,4L15.19,8L8,8L8,6L3,6L3,8L1.5,8C0.677,8 0,8.677 0,9.5L0,26.5C0,27.323 0.677,28 1.5,28L30.5,28C31.323,28 32,27.323 32,26.5L32,9.5C32,8.677 31.323,8 30.5,8ZM4,7L7,7L7,8L4,8L4,7ZM31,26.5C31,26.774 30.774,27 30.5,27L1.5,27C1.226,27 1,26.774 1,26.5L1,9.5C1,9.226 1.226,9 1.5,9L15.81,9L17.81,5L24.19,5L26.19,9L30.5,9C30.774,9 31,9.226 31,9.5L31,26.5Z" style="fill:rgb(221,147,84);fill-rule:nonzero;"/>
                <rect x="7" y="10" width="1" height="16" style="fill:rgb(221,147,84);"/>
                <path d="M21,10C16.611,10 13,13.611 13,18C13,22.389 16.611,26 21,26C25.389,26 29,22.389 29,18C29,13.611 25.389,10 21,10ZM21,25C17.16,25 14,21.84 14,18C14,14.16 17.16,11 21,11C24.84,11 28,14.16 28,18C28,21.84 24.84,25 21,25Z" style="fill:rgb(221,147,84);fill-rule:nonzero;"/>
                <path d="M21,13C18.257,13 16,15.257 16,18C16,20.743 18.257,23 21,23C23.743,23 26,20.743 26,18C26,15.257 23.743,13 21,13ZM21,22C18.806,22 17,20.194 17,18C17,15.806 18.806,14 21,14C23.194,14 25,15.806 25,18C25,20.194 23.194,22 21,22Z" style="fill:rgb(221,147,84);fill-rule:nonzero;"/>
                <circle cx="13" cy="11" r="1" style="fill:rgb(221,147,84);"/>
            </g>
        </g>
    </g>
</svg>
