<?xml version="1.0" encoding="UTF-8" standalone="no"?>
<!DOCTYPE svg PUBLIC "-//W3C//DTD SVG 1.1//EN" "http://www.w3.org/Graphics/SVG/1.1/DTD/svg11.dtd">
<svg width="100%" height="100%" viewBox="0 0 51 48" version="1.1" xmlns="http://www.w3.org/2000/svg" xmlns:xlink="http://www.w3.org/1999/xlink" xml:space="preserve" xmlns:serif="http://www.serif.com/" style="fill-rule:evenodd;clip-rule:evenodd;stroke-linejoin:round;stroke-miterlimit:1.41421;">
    <g transform="matrix(1,0,0,1,-754.368,-1827.76)">
        <g transform="matrix(1.64546,0,0,1.82899,-73.7254,0)">
            <g transform="matrix(0.607733,0,0,0.54675,503.259,999.326)">
                <path d="M47.619,44.392C47.619,45.058 47.079,45.6 46.424,45.6L3.576,45.6C2.92,45.598 2.381,45.057 2.381,44.401C2.381,44.398 2.381,44.395 2.381,44.392L2.381,12L47.619,12L47.619,44.392ZM3.576,2.4L46.424,2.4C47.082,2.4 47.614,2.934 47.618,3.6L47.619,3.608L47.619,9.6L2.381,9.6L2.381,3.608L2.382,3.6C2.387,2.939 2.922,2.4 3.576,2.4ZM50,3.6L50.001,3.608L50.001,44.392C50,46.385 48.393,48 46.424,48L3.576,48C1.601,48 0,46.388 0,44.392L0,3.608L0.001,3.6C0.005,2.089 0.959,0.734 2.381,0.222C2.763,0.079 3.168,0.004 3.576,0L46.424,0C48.396,0 49.994,1.607 49.999,3.6L50,3.6ZM5.952,7.2C6.611,7.2 7.142,6.663 7.142,6C7.142,5.336 6.611,4.8 5.952,4.8C5.294,4.8 4.762,5.336 4.762,6C4.762,6.663 5.294,7.2 5.952,7.2ZM9.524,7.2C10.182,7.2 10.714,6.663 10.714,6C10.714,5.336 10.182,4.8 9.524,4.8C8.865,4.8 8.334,5.336 8.334,6C8.334,6.663 8.865,7.2 9.524,7.2ZM13.095,7.2C13.754,7.2 14.285,6.663 14.285,6C14.285,5.336 13.754,4.8 13.095,4.8C12.437,4.8 11.905,5.336 11.905,6C11.905,6.663 12.437,7.2 13.095,7.2ZM35.365,20.751C35.313,20.7 35.248,20.675 35.19,20.634C34.726,20.311 34.095,20.334 33.682,20.751C33.219,21.218 33.219,21.981 33.682,22.448L35.19,23.968L38.726,27.533L35.19,31.099L33.682,32.619C33.219,33.086 33.219,33.849 33.682,34.316C34.095,34.731 34.726,34.758 35.19,34.433C35.248,34.393 35.313,34.369 35.365,34.316L41.252,28.381C41.715,27.914 41.715,27.151 41.252,26.684L35.365,20.751ZM28.481,16.881C28.097,16.731 27.696,16.812 27.381,17.031C27.193,17.163 27.027,17.331 26.938,17.562L26.768,18L22.751,28.347L19.13,37.677C18.889,38.289 19.194,38.99 19.805,39.232C19.943,39.286 20.09,39.313 20.238,39.313C20.728,39.313 21.171,39.01 21.347,38.552L22.751,34.933L27.381,23.007L29.155,18.437C29.21,18.293 29.231,18.145 29.231,18C29.231,17.52 28.951,17.067 28.481,16.882L28.481,16.881ZM16.451,22.448C16.914,21.981 16.914,21.218 16.451,20.751C16.229,20.526 15.925,20.399 15.609,20.399C15.293,20.399 14.989,20.526 14.767,20.751L13.096,22.436L8.88,26.684C8.417,27.151 8.417,27.914 8.88,28.381L13.096,32.631L14.767,34.316C14.989,34.54 15.293,34.667 15.609,34.667C15.924,34.667 16.228,34.54 16.45,34.316C16.916,33.847 16.916,33.086 16.45,32.619L13.096,29.237L11.406,27.533L13.096,25.83L16.45,22.448L16.451,22.448Z" style="fill:rgb(221,147,84);"/>
            </g>
        </g>
    </g>
</svg>
