<?xml version="1.0" encoding="UTF-8" standalone="no"?>
<!DOCTYPE svg PUBLIC "-//W3C//DTD SVG 1.1//EN" "http://www.w3.org/Graphics/SVG/1.1/DTD/svg11.dtd">
<svg width="100%" height="100%" viewBox="0 0 46 46" version="1.1" xmlns="http://www.w3.org/2000/svg" xmlns:xlink="http://www.w3.org/1999/xlink" xml:space="preserve" xmlns:serif="http://www.serif.com/" style="fill-rule:evenodd;clip-rule:evenodd;stroke-linejoin:round;stroke-miterlimit:1.41421;">
    <g transform="matrix(1,0,0,1,-574.04,-1058.17)">
        <g transform="matrix(1.64546,0,0,1.82899,-73.7254,0)">
            <g transform="matrix(0.0110135,0,0,0.00990832,407.435,590.938)">
                <g transform="matrix(1,0,0,1,-1250,-1250)">
                    <clipPath id="_clip1">
                        <rect x="0" y="0" width="2500" height="2500"/>
                    </clipPath>
                    <g clip-path="url(#_clip1)">
                        <path d="M0,1250C0,1023.33 55.835,814.168 167.5,622.5C279.168,430.833 430.835,279.168 622.5,167.5C814.167,55.832 1023.34,0 1250,0C1476.67,0 1685.84,55.832 1877.5,167.5C2069.17,279.168 2220.84,430.833 2332.5,622.5C2444.17,814.168 2500,1023.33 2500,1250C2500,1476.67 2444.17,1685.83 2332.5,1877.5C2220.84,2069.17 2069.17,2220.83 1877.5,2332.5C1685.84,2444.17 1476.67,2500 1250,2500C1023.34,2500 814.168,2444.17 622.5,2332.5C430.835,2220.83 279.168,2069.17 167.5,1877.5C55.835,1685.83 0,1476.67 0,1250ZM207.5,1250C207.5,1510 295,1739.17 470,1937.5C550,1780.83 676.668,1631.67 850,1490C1023.34,1348.33 1192.5,1259.17 1357.5,1222.5C1332.5,1164.17 1308.34,1111.67 1285,1065C998.335,1156.67 688.335,1202.5 355,1202.5C290,1202.5 241.668,1201.67 210,1200C210,1206.67 209.585,1215 208.75,1225C207.918,1235 207.5,1243.33 207.5,1250ZM240,992.5C276.668,995.833 330.835,997.5 402.5,997.5C680.835,997.5 945,960 1195,885C1068.34,660 929.168,472.5 777.5,322.5C645.835,389.168 532.918,481.668 438.75,600C344.585,718.333 278.335,849.168 240,992.5ZM612.5,2072.5C800.835,2219.17 1013.34,2292.5 1250,2292.5C1373.34,2292.5 1495.84,2269.17 1617.5,2222.5C1584.17,1937.5 1519.17,1661.67 1422.5,1395C1269.17,1428.33 1114.59,1512.5 958.75,1647.5C802.917,1782.5 687.5,1924.17 612.5,2072.5ZM995,242.5C1141.67,394.168 1277.5,583.333 1402.5,810C1629.17,715 1800,594.168 1915,447.5C1721.67,287.5 1500,207.5 1250,207.5C1165,207.5 1080,219.168 995,242.5ZM1492.5,987.5C1517.5,1040.83 1545.84,1108.33 1577.5,1190C1700.84,1178.33 1835,1172.5 1980,1172.5C2083.34,1172.5 2185.84,1175 2287.5,1180C2274.17,953.333 2192.5,751.668 2042.5,575C1934.17,736.668 1750.84,874.168 1492.5,987.5ZM1640,1365C1725,1611.67 1782.5,1865 1812.5,2125C1944.17,2040 2051.67,1930.83 2135,1797.5C2218.34,1664.17 2268.34,1520 2285,1365C2163.34,1356.67 2052.5,1352.5 1952.5,1352.5C1860.84,1352.5 1756.67,1356.67 1640,1365Z" style="fill:rgb(221,147,84);fill-rule:nonzero;stroke:rgb(221,147,84);stroke-width:1px;"/>
                    </g>
                </g>
            </g>
        </g>
    </g>
</svg>
