<?xml version="1.0" encoding="UTF-8" standalone="no"?>
<!DOCTYPE svg PUBLIC "-//W3C//DTD SVG 1.1//EN" "http://www.w3.org/Graphics/SVG/1.1/DTD/svg11.dtd">
<svg width="100%" height="100%" viewBox="0 0 43 43" version="1.1" xmlns="http://www.w3.org/2000/svg" xmlns:xlink="http://www.w3.org/1999/xlink" xml:space="preserve" xmlns:serif="http://www.serif.com/" style="fill-rule:evenodd;clip-rule:evenodd;stroke-linejoin:round;stroke-miterlimit:1.41421;">
    <g transform="matrix(1,0,0,1,-496.455,-1007.21)">
        <g transform="matrix(1,0,0,1,992.604,1054.46)">
            <g transform="matrix(1,0,0,1,-501.449,-52.1424)">
                <path d="M48.1,26.3C48.1,30.6 48.1,33.5 48,35.1C47.8,39 46.7,42 44.5,44.1C42.3,46.2 39.4,47.4 35.5,47.6C33.9,47.7 30.9,47.7 26.7,47.7C22.4,47.7 19.5,47.7 17.9,47.6C14,47.4 11,46.3 8.9,44.1C6.8,42 5.6,39 5.4,35.1C5.3,33.5 5.3,30.5 5.3,26.3C5.3,22.1 5.3,19.1 5.4,17.5C5.6,13.6 6.7,10.6 8.9,8.5C11,6.4 14,5.2 17.9,5C19.5,4.9 22.5,4.9 26.7,4.9C31,4.9 33.9,4.9 35.5,5C39.4,5.2 42.4,6.3 44.5,8.5C46.6,10.7 47.8,13.6 48,17.5C48,19.1 48.1,22 48.1,26.3ZM28.8,8.7L21.7,8.7C21,8.7 20.1,8.7 19,8.8C17.9,8.8 16.9,8.9 16.1,9.1C15.3,9.2 14.6,9.4 14.1,9.6C13.2,10 12.4,10.5 11.6,11.2C10.9,11.9 10.4,12.7 10,13.7C9.8,14.2 9.6,14.9 9.5,15.7C9.4,16.5 9.3,17.4 9.2,18.6C9.2,19.7 9.1,20.6 9.1,21.3L9.1,31.3C9.1,32 9.1,32.9 9.2,34C9.2,35.1 9.3,36.1 9.5,36.9C9.7,37.7 9.8,38.4 10,38.9C10.4,39.8 10.9,40.6 11.6,41.4C12.3,42.1 13.1,42.6 14.1,43C14.6,43.2 15.3,43.4 16.1,43.5C16.9,43.6 17.8,43.7 19,43.8C20.2,43.9 21,43.9 21.7,43.9L31.7,43.9C32.4,43.9 33.3,43.9 34.4,43.8C35.5,43.8 36.5,43.7 37.3,43.5C38.1,43.4 38.8,43.2 39.3,43C40.2,42.6 41,42.1 41.8,41.4C42.5,40.7 43,39.9 43.4,38.9C43.6,38.4 43.8,37.7 43.9,36.9C44,36.1 44.1,35.2 44.2,34C44.2,32.9 44.3,32 44.3,31.3L44.3,21.3C44.3,20.6 44.3,19.7 44.2,18.6C44.2,17.5 44.1,16.5 43.9,15.7C43.8,14.9 43.6,14.2 43.4,13.7C43,12.8 42.5,12 41.8,11.2C41.1,10.5 40.3,10 39.3,9.6C38.8,9.4 38.1,9.2 37.3,9.1C36.5,9 35.6,8.9 34.4,8.8C33.3,8.8 32.4,8.7 31.7,8.7C31.1,8.7 30.1,8.7 28.8,8.7ZM34.4,18.5C36.5,20.6 37.6,23.2 37.6,26.3C37.6,29.4 36.5,31.9 34.4,34.1C32.3,36.2 29.7,37.3 26.6,37.3C23.5,37.3 21,36.2 18.8,34.1C16.7,32 15.6,29.4 15.6,26.3C15.6,23.2 16.7,20.7 18.8,18.5C20.9,16.4 23.5,15.3 26.6,15.3C29.7,15.3 32.3,16.3 34.4,18.5ZM31.7,31.3C33.1,29.9 33.8,28.2 33.8,26.3C33.8,24.4 33.1,22.6 31.7,21.2C30.3,19.8 28.6,19.1 26.6,19.1C24.6,19.1 22.9,19.8 21.5,21.2C20.1,22.6 19.4,24.3 19.4,26.3C19.4,28.3 20.1,30 21.5,31.3C22.9,32.7 24.6,33.4 26.6,33.4C28.6,33.4 30.3,32.7 31.7,31.3ZM39.9,13C40.4,13.5 40.7,14.1 40.7,14.8C40.7,15.5 40.4,16.1 39.9,16.6C39.4,17.1 38.8,17.4 38.1,17.4C37.4,17.4 36.8,17.1 36.3,16.6C35.8,16.1 35.5,15.5 35.5,14.8C35.5,14.1 35.8,13.5 36.3,13C36.8,12.5 37.4,12.2 38.1,12.2C38.8,12.2 39.4,12.5 39.9,13Z" style="fill:rgb(221,147,84);fill-rule:nonzero;"/>
            </g>
        </g>
    </g>
</svg>
