<?xml version="1.0" encoding="UTF-8" standalone="no"?>
<!DOCTYPE svg PUBLIC "-//W3C//DTD SVG 1.1//EN" "http://www.w3.org/Graphics/SVG/1.1/DTD/svg11.dtd">
<svg width="100%" height="100%" viewBox="0 0 45 45" version="1.1" xmlns="http://www.w3.org/2000/svg" xmlns:xlink="http://www.w3.org/1999/xlink" xml:space="preserve" xmlns:serif="http://www.serif.com/" style="fill-rule:evenodd;clip-rule:evenodd;stroke-linejoin:round;stroke-miterlimit:1.41421;">
    <g transform="matrix(1,0,0,1,-554.271,-999.994)">
        <g transform="matrix(1.64546,0,0,1.82899,-73.7254,0)">
            <g transform="matrix(0.537088,0,0,0.483194,395.081,558.826)">
                <g transform="matrix(1,0,0,1,-25,-25)">
                    <clipPath id="_clip1">
                        <rect x="0" y="0" width="50" height="50"/>
                    </clipPath>
                    <g clip-path="url(#_clip1)">
                        <g transform="matrix(1.19048,0,0,1.19048,-4.7619,-4.7619)">
                            <path d="M9,4C6.25,4 4,6.25 4,9L4,41C4,43.75 6.25,46 9,46L41,46C43.75,46 46,43.75 46,41L46,9C46,6.25 43.75,4 41,4L9,4ZM9,6L41,6C42.668,6 44,7.332 44,9L44,41C44,42.668 42.668,44 41,44L9,44C7.332,44 6,42.668 6,41L6,9C6,7.332 7.332,6 9,6ZM13.171,8.754C12.076,8.754 11.09,9.082 10.361,9.696C9.631,10.31 9.183,11.227 9.183,12.209C9.183,14.076 10.802,15.532 12.863,15.676C12.864,15.677 12.865,15.677 12.866,15.678C12.965,15.711 13.067,15.729 13.171,15.731C15.444,15.731 17.159,14.139 17.159,12.209C17.146,10.947 17.159,12.174 17.157,12.156C17.056,10.256 15.362,8.754 13.171,8.754ZM13.171,10.731C14.563,10.731 15.113,11.352 15.173,12.235C15.161,13.091 14.631,13.754 13.171,13.754C11.786,13.754 11.159,13.045 11.159,12.209C11.159,11.792 11.312,11.477 11.632,11.207C11.952,10.938 12.466,10.731 13.171,10.731ZM10.171,17.787C9.623,17.787 9.171,18.238 9.171,18.787L9.171,37.787C9.171,38.335 9.623,38.786 10.171,38.787L16.171,38.787C16.72,38.786 17.171,38.335 17.171,37.787L17.171,31.921L17.171,18.787C17.171,18.238 16.72,17.787 16.171,17.787L10.171,17.787ZM20.468,17.787C19.92,17.787 19.468,18.238 19.468,18.787L19.468,37.787C19.468,38.335 19.92,38.786 20.468,38.787L26.468,38.787C27.017,38.786 27.468,38.335 27.468,37.787L27.468,27.787C27.468,26.957 27.694,26.132 28.093,25.591C28.492,25.051 28.995,24.727 29.951,24.744C30.936,24.761 31.458,25.098 31.853,25.628C32.248,26.158 32.468,26.953 32.468,27.787L32.468,37.787C32.468,38.335 32.92,38.786 33.468,38.787L39.468,38.787C40.017,38.786 40.468,38.335 40.468,37.787L40.468,27.048C40.468,24.087 39.591,21.741 38.087,20.154C36.584,18.567 34.492,17.787 32.281,17.787C30.179,17.787 28.579,18.491 27.468,19.21L27.468,18.787C27.468,18.238 27.017,17.787 26.468,17.787L20.468,17.787ZM11.171,19.787L15.171,19.787L15.171,36.787L11.171,36.787L11.171,19.787ZM21.468,19.787L25.468,19.787L25.468,21.347C25.468,21.896 25.92,22.347 26.468,22.347C26.782,22.347 27.078,22.199 27.267,21.949C27.267,21.949 28.837,19.787 32.281,19.787C34.034,19.787 35.537,20.369 36.636,21.529C37.735,22.688 38.468,24.475 38.468,27.048L38.468,36.787L34.468,36.787L34.468,27.787C34.468,26.62 34.189,25.414 33.458,24.433C32.728,23.452 31.5,22.77 29.986,22.744C28.464,22.717 27.216,23.414 26.484,24.406C25.752,25.398 25.468,26.616 25.468,27.787L25.468,36.787L21.468,36.787L21.468,19.787Z" style="fill:rgb(221,147,84);fill-rule:nonzero;stroke:rgb(221,147,84);stroke-width:0.84px;"/>
                        </g>
                    </g>
                </g>
            </g>
        </g>
    </g>
</svg>
