<?xml version="1.0" encoding="UTF-8" standalone="no"?>
<!DOCTYPE svg PUBLIC "-//W3C//DTD SVG 1.1//EN" "http://www.w3.org/Graphics/SVG/1.1/DTD/svg11.dtd">
<svg width="100%" height="100%" viewBox="0 0 48 49" version="1.1" xmlns="http://www.w3.org/2000/svg" xmlns:xlink="http://www.w3.org/1999/xlink" xml:space="preserve" xmlns:serif="http://www.serif.com/" style="fill-rule:evenodd;clip-rule:evenodd;stroke-linejoin:round;stroke-miterlimit:1.41421;">
    <g transform="matrix(1,0,0,1,-933.348,-1827.76)">
        <g transform="matrix(1.64546,0,0,1.82899,-73.7254,0)">
            <g transform="matrix(0.607733,0,0,0.54675,612.032,999.326)">
                <path d="M39.93,44.067L44.133,39.865L45.394,45.328L39.929,44.068L39.93,44.067ZM25.624,30.333L24.033,28.743L19.259,23.968L17.668,22.378L7.819,12.528L12.592,7.754L22.441,17.603L24.033,19.194L28.806,23.968L30.396,25.559L42.826,37.988L38.052,42.762L25.624,30.333ZM9.853,42.922L6.083,44.537L3.463,41.918L5.08,38.145L17.668,25.56L22.442,30.334L9.853,42.922ZM3.04,7.748C2.609,7.31 2.612,6.596 3.047,6.162L6.228,2.98C6.438,2.768 6.725,2.648 7.024,2.648C7.319,2.648 7.603,2.765 7.813,2.973L11.002,6.163L6.228,10.936L3.039,7.748L3.04,7.748ZM37.395,5.834L42.169,10.607L30.399,22.377L25.626,17.602L37.396,5.834L37.395,5.834ZM43.365,2.251C43.368,2.249 43.359,2.249 43.368,2.258L45.745,4.635C45.752,4.642 45.752,4.638 45.752,4.639L42.568,7.822L40.181,5.435L43.364,2.251L43.365,2.251ZM46.011,37.988L31.991,23.968L41.343,14.616L42.22,15.493C42.66,15.933 42.66,16.645 42.218,17.088L37.8,21.502C37.612,21.709 37.508,21.979 37.508,22.258C37.508,22.876 38.017,23.384 38.634,23.384C38.914,23.384 39.184,23.28 39.391,23.092L43.807,18.68C44.442,18.047 44.799,17.186 44.799,16.29C44.799,15.394 44.443,14.535 43.81,13.902L42.932,13.025L43.758,12.198L45.349,10.607L44.157,9.414L47.341,6.23C47.762,5.808 47.999,5.236 47.999,4.64C47.999,4.041 47.759,3.465 47.334,3.043L44.958,0.666C44.536,0.24 43.961,0 43.362,0C42.766,0 42.193,0.238 41.772,0.66L38.588,3.844L37.394,2.65L35.804,4.241L35.802,4.241L35.802,4.243L24.034,16.01L9.404,1.382C8.773,0.752 7.916,0.397 7.024,0.397C6.128,0.397 5.269,0.755 4.637,1.389L1.455,4.571C0.147,5.878 0.143,8.029 1.448,9.339L4.637,12.527L4.941,12.831L6.228,14.119L16.077,23.969L3.182,36.862L0.795,42.432L2.386,44.022L0,46.41L1.591,48L3.977,45.614L5.57,47.205L11.14,44.819L24.034,31.924L36.46,44.353L38.051,45.943L46.202,47.825C47.404,48.102 48.169,47.348 47.889,46.137L46.009,37.987L46.011,37.988Z" style="fill:rgb(221,147,84);"/>
            </g>
        </g>
    </g>
</svg>
